<svg width="18" height="18" viewBox="0 0 18 18" fill="none" xmlns="http://www.w3.org/2000/svg">
<path d="M16.5 5.35449V12.8545C16.5 13.3518 16.3025 13.8287 15.9508 14.1803C15.5992 14.5319 15.1223 14.7295 14.625 14.7295H3.375C2.87772 14.7295 2.40081 14.5319 2.04917 14.1803C1.69754 13.8287 1.5 13.3518 1.5 12.8545V5.35449" stroke="#797979" stroke-width="1.5" stroke-linecap="round" stroke-linejoin="round"/>
<path d="M16.5 5.35449C16.5 4.85721 16.3025 4.3803 15.9508 4.02867C15.5992 3.67704 15.1223 3.47949 14.625 3.47949H3.375C2.87772 3.47949 2.40081 3.67704 2.04917 4.02867C1.69754 4.3803 1.5 4.85721 1.5 5.35449L8.00625 9.41699C8.30425 9.60324 8.64859 9.702 9 9.702C9.35141 9.702 9.69575 9.60324 9.99375 9.41699L16.5 5.35449Z" stroke="#797979" stroke-width="1.5" stroke-linecap="round" stroke-linejoin="round"/>
</svg>
