<svg width="18" height="16" viewBox="0 0 18 16" fill="none" xmlns="http://www.w3.org/2000/svg">
<g clip-path="url(#clip0_4063_68277)">
<path d="M8.99971 2.5C6.96221 2.5 5.28721 3.425 4.00283 4.61562C2.79971 5.73438 1.96846 7.0625 1.54346 8C1.96846 8.9375 2.79971 10.2656 3.99971 11.3844C5.28721 12.575 6.96221 13.5 8.99971 13.5C11.0372 13.5 12.7122 12.575 13.9966 11.3844C15.1997 10.2656 16.031 8.9375 16.456 8C16.031 7.0625 15.1997 5.73438 13.9997 4.61562C12.7122 3.425 11.0372 2.5 8.99971 2.5ZM2.98096 3.51875C4.45283 2.15 6.47471 1 8.99971 1C11.5247 1 13.5466 2.15 15.0185 3.51875C16.481 4.87812 17.4591 6.5 17.9247 7.61562C18.0278 7.8625 18.0278 8.1375 17.9247 8.38437C17.4591 9.5 16.481 11.125 15.0185 12.4812C13.5466 13.85 11.5247 15 8.99971 15C6.47471 15 4.45283 13.85 2.98096 12.4812C1.51846 11.125 0.540332 9.5 0.077832 8.38437C-0.025293 8.1375 -0.025293 7.8625 0.077832 7.61562C0.540332 6.5 1.51846 4.875 2.98096 3.51875ZM8.99971 10.5C10.381 10.5 11.4997 9.38125 11.4997 8C11.4997 6.61875 10.381 5.5 8.99971 5.5C8.97783 5.5 8.95908 5.5 8.93721 5.5C8.97783 5.65938 8.99971 5.82812 8.99971 6C8.99971 7.10313 8.10283 8 6.99971 8C6.82783 8 6.65908 7.97813 6.49971 7.9375C6.49971 7.95937 6.49971 7.97813 6.49971 8C6.49971 9.38125 7.61846 10.5 8.99971 10.5ZM8.99971 4C10.0606 4 11.078 4.42143 11.8281 5.17157C12.5783 5.92172 12.9997 6.93913 12.9997 8C12.9997 9.06087 12.5783 10.0783 11.8281 10.8284C11.078 11.5786 10.0606 12 8.99971 12C7.93884 12 6.92143 11.5786 6.17128 10.8284C5.42113 10.0783 4.99971 9.06087 4.99971 8C4.99971 6.93913 5.42113 5.92172 6.17128 5.17157C6.92143 4.42143 7.93884 4 8.99971 4Z" fill="#A6A6A6"/>
</g>
<defs>
<clipPath id="clip0_4063_68277">
<rect width="18" height="16" fill="white"/>
</clipPath>
</defs>
</svg>
