<svg width="18" height="18" viewBox="0 0 18 18" fill="none" xmlns="http://www.w3.org/2000/svg">
<path d="M12.75 6.85449H5.25C4.21447 6.85449 3.375 7.69396 3.375 8.72949V14.3545C3.375 15.39 4.21447 16.2295 5.25 16.2295H12.75C13.7855 16.2295 14.625 15.39 14.625 14.3545V8.72949C14.625 7.69396 13.7855 6.85449 12.75 6.85449Z" stroke="#858585" stroke-width="2" stroke-linecap="round" stroke-linejoin="round"/>
<path d="M9 1.22949C8.00544 1.22949 7.05161 1.62458 6.34835 2.32784C5.64509 3.0311 5.25 3.98493 5.25 4.97949V6.85449H12.75V4.97949C12.75 3.98493 12.3549 3.0311 11.6517 2.32784C10.9484 1.62458 9.99456 1.22949 9 1.22949V1.22949Z" stroke="#858585" stroke-width="2" stroke-linecap="round" stroke-linejoin="round"/>
</svg>
