<svg width="18" height="18" viewBox="0 0 18 18" fill="none" xmlns="http://www.w3.org/2000/svg">
<path d="M2.4375 16.5V15.5625C2.4375 14.7007 2.60724 13.8473 2.93704 13.0511C3.26684 12.2549 3.75023 11.5315 4.35961 10.9221C4.969 10.3127 5.69244 9.82934 6.48864 9.49954C7.28484 9.16974 8.1382 9 9 9C9.8618 9 10.7152 9.16974 11.5114 9.49954C12.3076 9.82934 13.031 10.3127 13.6404 10.9221C14.2498 11.5315 14.7332 12.2549 15.063 13.0511C15.3928 13.8473 15.5625 14.7007 15.5625 15.5625V16.5" stroke="#858585" stroke-width="2" stroke-linecap="round" stroke-linejoin="round"/>
<path d="M9 9C9.99456 9 10.9484 8.60491 11.6517 7.90165C12.3549 7.19839 12.75 6.24456 12.75 5.25C12.75 4.25544 12.3549 3.30161 11.6517 2.59835C10.9484 1.89509 9.99456 1.5 9 1.5C8.00544 1.5 7.05161 1.89509 6.34835 2.59835C5.64509 3.30161 5.25 4.25544 5.25 5.25C5.25 6.24456 5.64509 7.19839 6.34835 7.90165C7.05161 8.60491 8.00544 9 9 9V9Z" stroke="#858585" stroke-width="2" stroke-linecap="round" stroke-linejoin="round"/>
</svg>
